<svg xmlns="http://www.w3.org/2000/svg" width="700" height="400" viewBox="0 0 700 400">
  <defs>
    <style>
      .cls-1 {
        fill-rule: evenodd;
      }
    </style>
  </defs>
  <path id="Заливка_цветом_1" data-name="Заливка цветом 1" class="cls-1" d="M48,31h81V146l2-1L206,31h78L213,133l88,178H207L159,206l-4,3-26,38v64H48V31Zm381,0c82.1-.93,185.392-11.69,221,35q7.5,15,15,30c4.378,14.908,2.822,34.414-1,48-16.874,59.983-68.7,65.854-147,65V311H429V31Zm86,64v54c30.549,1.053,74.727,2.878,67-33C576.76,91.67,545.111,93.985,515,95Z"/>
</svg>
