<svg width="80.827" height="35.515" viewBox="0 0 80.827 35.515" xmlns="http://www.w3.org/2000/svg"><g id="svgGroup" stroke-linecap="round" fill-rule="evenodd" font-size="9pt" stroke="#000" stroke-width="0.25mm" fill="#000000" style="stroke:#000;stroke-width:0.25mm;fill:#000000"><path d="M 13.542 3.32 L 13.542 3.451 A 0.295 0.295 0 0 1 13.521 3.564 Q 13.468 3.692 13.277 3.708 A 0.702 0.702 0 0 1 13.216 3.711 A 0.274 0.274 0 0 1 13.134 3.699 Q 13.04 3.67 13.005 3.564 Q 12.956 3.418 12.956 3.255 Q 12.956 2.93 13.135 2.49 A 1.876 1.876 0 0 1 13.403 2.037 Q 13.556 1.843 13.77 1.66 A 2.843 2.843 0 0 1 14.196 1.362 Q 14.417 1.234 14.685 1.122 A 5.789 5.789 0 0 1 15.023 0.993 A 4.349 4.349 0 0 1 15.687 0.824 Q 16.296 0.716 17.09 0.716 A 11.398 11.398 0 0 1 17.983 0.754 Q 18.801 0.819 19.824 0.993 A 80.489 80.489 0 0 1 21.941 1.383 A 97.695 97.695 0 0 1 23.291 1.66 A 196.791 196.791 0 0 1 27.018 2.49 A 176.446 176.446 0 0 0 28.825 2.901 A 131.894 131.894 0 0 0 30.469 3.255 A 15.361 15.361 0 0 1 33.233 1.334 A 13.886 13.886 0 0 1 34.049 0.928 A 10.036 10.036 0 0 1 37.923 0 A 4.382 4.382 0 0 1 38.334 0.02 A 5.955 5.955 0 0 1 38.786 0.081 A 2.371 2.371 0 0 1 39.648 0.407 A 1.989 1.989 0 0 1 40.241 0.984 A 2.347 2.347 0 0 1 40.299 1.074 Q 40.516 1.427 40.553 1.96 A 3.262 3.262 0 0 1 40.56 2.181 Q 40.56 2.864 40.298 3.336 A 1.721 1.721 0 0 1 40.218 3.467 Q 39.876 3.971 39.323 4.264 A 4.293 4.293 0 0 1 38.328 4.638 A 4.942 4.942 0 0 1 38.102 4.687 A 6.988 6.988 0 0 1 37.168 4.807 A 6.082 6.082 0 0 1 36.816 4.818 A 6.479 6.479 0 0 1 36.402 4.802 Q 35.929 4.772 35.228 4.679 A 39.83 39.83 0 0 1 34.489 4.574 A 57.91 57.91 0 0 1 33.191 4.361 Q 32.035 4.159 30.632 3.874 A 28.01 28.01 0 0 0 28.031 6.297 A 34.501 34.501 0 0 0 26.514 8.008 A 114.331 114.331 0 0 0 23.483 11.823 A 131.711 131.711 0 0 0 22.461 13.184 A 10.959 10.959 0 0 1 24.151 14.237 A 12.63 12.63 0 0 1 24.609 14.6 A 13.14 13.14 0 0 1 26.465 16.471 A 18.735 18.735 0 0 0 29.66 15.578 A 21.315 21.315 0 0 0 30.404 15.283 Q 32.389 14.453 34.31 13.33 Q 36.23 12.207 38.037 10.872 A 60.827 60.827 0 0 0 41.037 8.512 A 55.033 55.033 0 0 0 41.439 8.171 A 52.767 52.767 0 0 0 42.565 7.162 A 61.012 61.012 0 0 0 42.985 6.771 A 23.372 23.372 0 0 1 44.495 5.467 A 21.458 21.458 0 0 1 44.596 5.387 A 10.757 10.757 0 0 1 45.723 4.615 A 9.248 9.248 0 0 1 46.24 4.329 A 3.789 3.789 0 0 1 47.567 3.926 A 3.602 3.602 0 0 1 47.949 3.906 A 3.054 3.054 0 0 1 48.706 4.005 A 3.711 3.711 0 0 1 49.023 4.102 Q 49.707 4.362 50.114 4.997 A 2.569 2.569 0 0 1 50.521 6.413 A 6.259 6.259 0 0 1 50.511 6.768 Q 50.481 7.309 50.348 7.534 A 0.5 0.5 0 0 1 50.326 7.568 A 1.669 1.669 0 0 1 50.246 7.673 Q 50.117 7.828 50.021 7.843 A 0.131 0.131 0 0 1 50 7.845 Q 49.749 7.845 49.713 7.654 A 0.375 0.375 0 0 1 49.707 7.585 A 1.312 1.312 0 0 1 49.758 7.227 A 1.647 1.647 0 0 1 49.821 7.048 A 1.484 1.484 0 0 0 49.916 6.692 A 1.967 1.967 0 0 0 49.935 6.413 Q 49.935 5.664 49.414 5.078 A 1.7 1.7 0 0 0 48.447 4.539 A 2.538 2.538 0 0 0 47.949 4.492 A 2.724 2.724 0 0 0 47.2 4.602 Q 46.891 4.691 46.568 4.849 A 4.656 4.656 0 0 0 46.501 4.883 A 9.235 9.235 0 0 0 45.538 5.454 A 11.388 11.388 0 0 0 44.954 5.876 Q 44.173 6.478 43.376 7.21 A 44.16 44.16 0 0 1 41.992 8.43 A 40.179 40.179 0 0 1 41.797 8.594 A 53.112 53.112 0 0 1 38.901 10.949 A 58.372 58.372 0 0 1 38.46 11.279 A 41.546 41.546 0 0 1 34.782 13.721 A 35.495 35.495 0 0 1 30.892 15.706 A 20.693 20.693 0 0 1 26.888 16.992 A 11.216 11.216 0 0 1 28.154 19.217 A 12.88 12.88 0 0 1 28.385 19.792 A 9.272 9.272 0 0 1 28.935 22.3 A 11.1 11.1 0 0 1 28.971 23.21 A 17.728 17.728 0 0 1 28.84 25.414 A 14.629 14.629 0 0 1 28.63 26.66 Q 28.288 28.255 28.288 29.492 A 3.969 3.969 0 0 0 28.408 30.45 A 4.463 4.463 0 0 0 28.434 30.55 A 2.74 2.74 0 0 0 28.906 31.51 A 2.547 2.547 0 0 0 29.704 32.194 Q 30.176 32.454 30.827 32.454 A 3.853 3.853 0 0 0 32.259 32.17 A 4.969 4.969 0 0 0 32.91 31.852 A 8.926 8.926 0 0 0 33.856 31.227 A 6.641 6.641 0 0 0 34.635 30.534 A 1.152 1.152 0 0 1 34.696 30.505 Q 34.756 30.48 34.797 30.472 A 0.184 0.184 0 0 1 34.831 30.469 A 0.316 0.316 0 0 1 34.956 30.495 A 0.434 0.434 0 0 1 35.026 30.534 A 0.204 0.204 0 0 1 35.106 30.642 Q 35.124 30.693 35.124 30.762 A 0.415 0.415 0 0 1 35.118 30.835 Q 35.104 30.912 35.059 30.957 Q 34.701 31.315 34.196 31.689 A 8.257 8.257 0 0 1 33.138 32.357 Q 32.585 32.65 31.982 32.829 Q 31.38 33.008 30.794 33.008 A 3.064 3.064 0 0 1 29.659 32.804 A 2.806 2.806 0 0 1 28.564 32.015 A 3.473 3.473 0 0 1 27.759 30.245 A 4.77 4.77 0 0 1 27.702 29.492 A 12.85 12.85 0 0 1 27.856 27.545 A 15.533 15.533 0 0 1 28.044 26.546 A 14.537 14.537 0 0 0 28.349 24.358 A 17.555 17.555 0 0 0 28.385 23.21 A 10.147 10.147 0 0 0 28.235 21.423 A 7.864 7.864 0 0 0 27.783 19.84 Q 27.181 18.359 26.237 17.122 A 10.953 10.953 0 0 1 25.123 17.288 A 9.915 9.915 0 0 1 24.967 17.301 A 16.131 16.131 0 0 1 23.698 17.35 Q 21.68 17.35 19.824 16.732 L 19.173 17.643 A 24.924 24.924 0 0 1 18.49 18.555 A 1076.627 1076.627 0 0 0 16.345 21.423 A 810.099 810.099 0 0 0 14.404 24.04 A 55.648 55.648 0 0 1 12.716 26.217 Q 11.896 27.218 11.112 28.065 A 32.721 32.721 0 0 1 10.889 28.304 Q 9.389 29.891 7.942 30.84 A 11.395 11.395 0 0 1 7.601 31.055 A 6.677 6.677 0 0 1 5.45 31.911 A 6.159 6.159 0 0 1 4.232 32.031 Q 2.862 32.031 1.942 31.615 A 3.083 3.083 0 0 1 1.042 31.006 A 3.443 3.443 0 0 1 0.037 28.921 A 4.773 4.773 0 0 1 0 28.32 L 0 27.881 A 2.909 2.909 0 0 1 0.049 27.344 A 2.006 2.006 0 0 1 0.11 27.1 A 1.497 1.497 0 0 1 0.195 26.888 Q 0.293 26.693 0.456 26.693 Q 0.707 26.693 0.743 26.884 A 0.375 0.375 0 0 1 0.749 26.953 A 3.222 3.222 0 0 1 0.667 27.669 A 3.548 3.548 0 0 0 0.609 27.991 Q 0.586 28.165 0.586 28.32 A 3.624 3.624 0 0 0 0.725 29.35 A 2.817 2.817 0 0 0 1.465 30.583 A 2.662 2.662 0 0 0 2.427 31.172 Q 2.845 31.326 3.364 31.393 A 6.775 6.775 0 0 0 4.232 31.445 A 5.876 5.876 0 0 0 7.097 30.686 A 7.383 7.383 0 0 0 7.666 30.339 A 14.096 14.096 0 0 0 9.123 29.202 Q 10.072 28.363 11.051 27.246 Q 12.548 25.54 14.225 23.268 A 87.842 87.842 0 0 0 14.779 22.51 A 211.329 211.329 0 0 1 16.895 19.633 A 281.498 281.498 0 0 1 19.271 16.504 A 59.645 59.645 0 0 0 19.002 16.337 A 70.504 70.504 0 0 0 18.717 16.162 A 4.011 4.011 0 0 1 18.222 15.803 A 4.495 4.495 0 0 1 18.148 15.739 A 2.027 2.027 0 0 1 17.692 15.153 Q 17.513 14.811 17.513 14.355 A 1.816 1.816 0 0 1 17.643 13.658 Q 17.808 13.256 18.185 12.965 A 2.097 2.097 0 0 1 18.197 12.956 A 2.509 2.509 0 0 1 19.759 12.435 A 4.818 4.818 0 0 1 20.866 12.565 A 5.364 5.364 0 0 1 21.892 12.916 A 5.04 5.04 0 0 1 21.908 12.923 Q 23.861 10.286 25.846 7.91 A 42.217 42.217 0 0 1 28.354 5.156 A 35.214 35.214 0 0 1 29.883 3.711 A 73.533 73.533 0 0 1 28.284 3.385 A 95.561 95.561 0 0 1 26.546 2.995 A 165.802 165.802 0 0 0 22.966 2.197 A 91.977 91.977 0 0 0 21.248 1.851 A 73.983 73.983 0 0 0 19.645 1.562 Q 18.606 1.388 17.81 1.33 A 10.063 10.063 0 0 0 17.09 1.302 Q 15.491 1.302 14.642 1.701 A 2.283 2.283 0 0 0 14.388 1.839 A 1.988 1.988 0 0 0 13.889 2.278 Q 13.544 2.712 13.542 3.311 A 2.099 2.099 0 0 0 13.542 3.32 Z M 37.956 32.617 L 37.956 32.585 A 0.469 0.469 0 0 1 37.972 32.456 Q 38.013 32.311 38.161 32.273 A 0.48 0.48 0 0 1 38.281 32.259 A 0.25 0.25 0 0 1 38.409 32.291 Q 38.499 32.343 38.54 32.48 A 0.588 0.588 0 0 1 38.542 32.487 A 3.08 3.08 0 0 0 38.921 33.458 A 2.667 2.667 0 0 0 39.762 34.31 Q 40.723 34.928 41.895 34.928 Q 42.969 34.928 43.913 34.521 Q 44.857 34.115 45.719 33.398 A 10.628 10.628 0 0 0 46.864 32.286 A 12.769 12.769 0 0 0 47.363 31.689 A 27.567 27.567 0 0 0 48.34 30.366 A 33.375 33.375 0 0 0 48.926 29.492 Q 50.143 27.602 51.487 25.16 A 100.721 100.721 0 0 0 51.53 25.081 Q 52.897 22.591 54.443 19.906 A 129.344 129.344 0 0 1 57.715 14.535 A 50.476 50.476 0 0 1 61.377 9.521 A 32.045 32.045 0 0 1 64.401 6.342 A 28.395 28.395 0 0 1 65.462 5.42 A 15.833 15.833 0 0 1 68.38 3.491 A 13.755 13.755 0 0 1 69.987 2.799 A 6.88 6.88 0 0 0 69.434 2.613 Q 69.148 2.528 68.824 2.456 A 11.871 11.871 0 0 0 68.604 2.409 A 26.274 26.274 0 0 0 66.992 2.132 A 21.361 21.361 0 0 0 65.608 1.983 A 19.249 19.249 0 0 0 65.413 1.969 A 28.348 28.348 0 0 0 64.869 1.94 Q 64.441 1.921 64.095 1.921 A 17.377 17.377 0 0 0 59.928 2.425 A 13.174 13.174 0 0 0 56.022 4.102 A 4.236 4.236 0 0 1 56.357 4.681 A 5.255 5.255 0 0 1 56.527 5.078 Q 56.738 5.632 56.852 6.201 Q 56.966 6.771 57.015 7.324 Q 57.064 7.878 57.064 8.301 Q 57.064 10.254 56.364 11.214 A 2.222 2.222 0 0 1 54.764 12.155 A 2.919 2.919 0 0 1 54.427 12.174 A 3.071 3.071 0 0 1 53.735 12.101 Q 53.04 11.941 52.637 11.426 A 2.704 2.704 0 0 1 52.115 10.251 A 3.768 3.768 0 0 1 52.051 9.538 Q 52.051 9.049 52.262 8.35 A 8.013 8.013 0 0 1 52.557 7.542 A 10.214 10.214 0 0 1 52.865 6.885 A 9.49 9.49 0 0 1 53.494 5.833 A 11.31 11.31 0 0 1 53.841 5.355 Q 54.427 4.59 55.208 4.004 A 5.895 5.895 0 0 0 54.039 2.952 A 5.511 5.511 0 0 0 53.906 2.865 Q 53.7 2.747 53.348 2.59 A 13.569 13.569 0 0 0 53.271 2.555 A 27.135 27.135 0 0 1 52.458 2.181 A 65.78 65.78 0 0 1 52.169 2.041 Q 52.055 1.986 51.952 1.936 A 34.984 34.984 0 0 1 51.758 1.839 Q 51.465 1.693 51.465 1.595 A 0.469 0.469 0 0 1 51.481 1.466 Q 51.522 1.322 51.67 1.283 A 0.48 0.48 0 0 1 51.79 1.27 L 51.855 1.27 L 52.246 1.4 Q 52.637 1.53 53.223 1.807 Q 53.809 2.083 54.46 2.539 A 6.307 6.307 0 0 1 55.524 3.486 A 7.135 7.135 0 0 1 55.664 3.646 Q 57.389 2.539 59.456 1.937 Q 61.523 1.335 63.639 1.335 A 24.508 24.508 0 0 1 70.037 2.207 A 27.851 27.851 0 0 1 70.964 2.474 A 11.391 11.391 0 0 1 72.68 2.092 A 12.47 12.47 0 0 1 72.738 2.083 A 13.688 13.688 0 0 1 74.642 1.953 A 11.983 11.983 0 0 1 76.514 2.1 A 7.586 7.586 0 0 1 78.05 2.505 A 6.997 6.997 0 0 1 78.255 2.588 A 4.983 4.983 0 0 1 79.72 3.532 Q 80.371 4.134 80.794 5.046 Q 80.821 5.072 80.826 5.141 A 0.483 0.483 0 0 1 80.827 5.176 A 0.422 0.422 0 0 1 80.812 5.292 Q 80.775 5.422 80.642 5.456 A 0.432 0.432 0 0 1 80.534 5.469 Q 80.322 5.469 80.279 5.301 A 0.32 0.32 0 0 1 80.273 5.273 A 4.199 4.199 0 0 0 79.617 4.279 A 3.845 3.845 0 0 0 79.346 4.004 A 4.892 4.892 0 0 0 78.06 3.158 A 6.437 6.437 0 0 0 76.53 2.686 Q 75.716 2.539 74.935 2.539 A 15.419 15.419 0 0 0 72.88 2.671 A 13.121 13.121 0 0 0 71.94 2.832 A 17.503 17.503 0 0 0 72.086 2.889 Q 72.164 2.92 72.233 2.946 Q 72.363 2.995 72.526 3.06 A 15.993 15.993 0 0 1 74.036 3.849 A 11.885 11.885 0 0 1 75.309 4.72 Q 76.465 5.632 77.246 6.624 A 11.17 11.17 0 0 1 77.942 7.609 A 8.52 8.52 0 0 1 78.467 8.577 Q 78.906 9.538 79.134 10.368 Q 79.362 11.198 79.427 11.833 Q 79.49 12.444 79.492 12.738 A 2.814 2.814 0 0 1 79.492 12.76 Q 79.492 14.941 78.532 16.96 A 12.112 12.112 0 0 1 75.96 20.524 Q 74.349 22.07 72.282 22.998 Q 70.215 23.926 68.001 23.926 Q 66.341 23.926 64.714 23.356 Q 63.086 22.786 61.523 21.647 A 10.629 10.629 0 0 1 60.926 21.184 A 8.237 8.237 0 0 1 60.498 20.801 A 20.193 20.193 0 0 1 60.189 20.497 Q 60.039 20.346 59.911 20.21 A 10.066 10.066 0 0 1 59.766 20.052 A 6.548 6.548 0 0 1 59.361 19.61 A 5.353 5.353 0 0 1 59.147 19.336 A 0.22 0.22 0 0 1 59.082 19.179 A 0.288 0.288 0 0 1 59.082 19.173 A 0.597 0.597 0 0 1 59.093 19.054 Q 59.135 18.848 59.342 18.848 Q 59.45 18.848 59.558 18.937 A 0.648 0.648 0 0 1 59.603 18.978 Q 60.286 19.922 61.247 20.719 A 11.372 11.372 0 0 0 63.314 22.087 Q 64.421 22.656 65.641 22.982 Q 66.862 23.307 68.066 23.307 A 9.374 9.374 0 0 0 71.036 22.811 A 11.209 11.209 0 0 0 71.875 22.493 A 12.12 12.12 0 0 0 75.358 20.247 A 11.956 11.956 0 0 0 77.913 16.895 A 8.872 8.872 0 0 0 78.906 12.76 Q 78.906 12.491 78.851 11.903 A 29.551 29.551 0 0 0 78.841 11.8 A 6.914 6.914 0 0 0 78.75 11.182 Q 78.67 10.757 78.532 10.27 Q 78.288 9.408 77.783 8.415 A 7.786 7.786 0 0 0 77.046 7.247 A 10.021 10.021 0 0 0 76.383 6.462 A 10.633 10.633 0 0 0 75.308 5.464 A 14.313 14.313 0 0 0 74.154 4.622 A 12.148 12.148 0 0 0 72.681 3.8 Q 71.925 3.442 71.048 3.133 A 19.929 19.929 0 0 0 70.931 3.092 A 13.545 13.545 0 0 0 66.569 5.29 A 24.94 24.94 0 0 0 63.535 7.993 A 28.665 28.665 0 0 0 62.728 8.87 A 42.776 42.776 0 0 0 60.076 12.209 A 48.71 48.71 0 0 0 59.229 13.428 Q 57.552 15.918 55.924 18.522 A 83.048 83.048 0 0 0 53.483 22.689 A 456.533 456.533 0 0 1 51.82 25.704 A 396.809 396.809 0 0 1 51.286 26.66 Q 50.228 28.548 49.186 30.16 A 22.565 22.565 0 0 1 48.027 31.795 A 17.554 17.554 0 0 1 47.038 32.959 A 10.178 10.178 0 0 1 45.674 34.19 A 8.409 8.409 0 0 1 44.678 34.831 A 5.65 5.65 0 0 1 41.927 35.514 A 4.316 4.316 0 0 1 39.453 34.766 A 3.621 3.621 0 0 1 38.05 32.916 A 4.657 4.657 0 0 1 37.956 32.617 Z M 32.91 2.214 A 18.768 18.768 0 0 0 32.064 2.767 A 20.906 20.906 0 0 0 31.217 3.385 A 97.121 97.121 0 0 0 32.713 3.673 Q 33.298 3.78 33.819 3.867 A 46.249 46.249 0 0 0 34.798 4.02 Q 36.263 4.232 36.914 4.232 Q 37.37 4.232 37.907 4.15 Q 38.444 4.069 38.916 3.841 Q 39.388 3.613 39.697 3.206 A 1.455 1.455 0 0 0 39.949 2.663 Q 39.999 2.458 40.006 2.218 A 2.66 2.66 0 0 0 40.007 2.148 A 2.166 2.166 0 0 0 39.985 1.836 Q 39.945 1.559 39.827 1.367 Q 39.648 1.074 39.355 0.895 Q 39.063 0.716 38.688 0.651 Q 38.314 0.586 37.923 0.586 A 8.532 8.532 0 0 0 35.4 1.042 A 12.226 12.226 0 0 0 33.452 1.902 A 14.08 14.08 0 0 0 32.91 2.214 Z M 56.283 6.315 Q 56.152 5.306 55.566 4.46 A 7.002 7.002 0 0 0 54.383 5.629 A 6.504 6.504 0 0 0 54.281 5.762 A 11.859 11.859 0 0 0 53.673 6.651 A 9.903 9.903 0 0 0 53.369 7.178 A 7.729 7.729 0 0 0 53.044 7.861 A 5.846 5.846 0 0 0 52.816 8.512 A 6.659 6.659 0 0 0 52.721 8.885 Q 52.644 9.235 52.637 9.49 A 1.804 1.804 0 0 0 52.637 9.538 Q 52.637 10.352 53.011 10.97 A 1.188 1.188 0 0 0 53.668 11.483 Q 53.977 11.589 54.395 11.589 A 1.735 1.735 0 0 0 55.721 11 A 2.431 2.431 0 0 0 55.892 10.791 A 2.494 2.494 0 0 0 56.237 10.103 Q 56.478 9.386 56.478 8.301 Q 56.478 7.611 56.348 6.728 A 17.279 17.279 0 0 0 56.283 6.315 Z M 23.698 16.764 A 11.154 11.154 0 0 0 24.74 16.715 A 45.209 45.209 0 0 0 25.676 16.618 A 49.629 49.629 0 0 0 25.814 16.602 A 31.053 31.053 0 0 0 25.322 16.074 Q 24.929 15.664 24.593 15.348 A 14.665 14.665 0 0 0 24.204 14.995 Q 24.009 14.824 23.828 14.681 A 7.841 7.841 0 0 0 23.617 14.518 A 7.743 7.743 0 0 0 23.244 14.258 Q 23.057 14.136 22.882 14.04 A 4.366 4.366 0 0 0 22.803 13.997 A 51.132 51.132 0 0 0 22.441 13.81 A 40.923 40.923 0 0 0 22.103 13.639 Q 21.615 14.29 21.143 14.941 Q 20.671 15.592 20.182 16.243 Q 21.842 16.764 23.698 16.764 Z M 18.099 14.355 A 1.151 1.151 0 0 0 18.345 15.063 A 1.773 1.773 0 0 0 18.62 15.348 A 5.646 5.646 0 0 0 19.069 15.692 Q 19.316 15.862 19.556 15.98 A 3.346 3.346 0 0 0 19.629 16.016 A 49.074 49.074 0 0 1 20.573 14.714 L 21.549 13.411 A 11.513 11.513 0 0 0 20.687 13.118 A 3.226 3.226 0 0 0 19.828 12.989 A 3.625 3.625 0 0 0 19.759 12.988 A 1.921 1.921 0 0 0 19.033 13.135 A 2.543 2.543 0 0 0 18.652 13.33 Q 18.155 13.637 18.105 14.221 A 1.569 1.569 0 0 0 18.099 14.355 Z" vector-effect="non-scaling-stroke"/></g></svg>